<?xml version="1.0" standalone="no"?>
<!DOCTYPE svg PUBLIC "-//W3C//DTD SVG 20010904//EN"
 "http://www.w3.org/TR/2001/REC-SVG-20010904/DTD/svg10.dtd">
<svg version="1.0" xmlns="http://www.w3.org/2000/svg"
 width="512.000000pt" height="512.000000pt" viewBox="0 0 512.000000 512.000000"
 preserveAspectRatio="xMidYMid meet">
<metadata>
Created by potrace 1.14, written by Peter Selinger 2001-2017
</metadata>
<g transform="translate(0.000000,512.000000) scale(0.100000,-0.100000)"
fill="#000000" stroke="none">
<path d="M2175 4569 c-245 -48 -428 -159 -585 -356 -32 -39 -59 -76 -61 -82
-3 -7 -23 -5 -59 5 -70 19 -248 26 -320 13 -84 -16 -184 -54 -253 -96 -86 -52
-141 -101 -206 -183 -228 -288 -202 -721 59 -980 141 -140 290 -206 487 -217
210 -11 370 42 533 178 l60 50 188 -116 c147 -90 194 -115 223 -115 28 0 65
19 178 94 l142 94 141 -94 c113 -75 149 -94 177 -94 28 0 72 22 191 95 85 52
159 95 163 95 5 0 42 -18 83 -40 247 -135 278 -150 317 -150 49 0 96 45 98 94
0 17 2 146 2 286 l2 255 271 1 c149 1 283 4 297 8 14 3 36 20 48 38 l23 31 -1
426 c-1 419 -1 427 -23 486 -40 104 -89 166 -178 225 -100 66 -56 63 -1027 65
-801 1 -889 0 -970 -16z"/>
<path d="M1760 2609 c-297 -156 -339 -180 -355 -206 -16 -24 -18 -58 -19 -307
l-1 -281 -281 -1 c-274 -1 -283 -2 -313 -23 -17 -12 -34 -34 -38 -49 -8 -35
-8 -502 1 -567 37 -270 237 -513 496 -601 111 -38 166 -41 911 -39 398 2 738
5 754 8 17 3 45 8 64 12 19 3 43 11 55 17 11 6 23 11 26 10 20 -7 161 58 246
113 94 62 223 197 289 302 0 1 28 -5 60 -14 96 -26 291 -24 385 5 97 30 131
45 210 97 203 132 326 354 334 600 14 464 -388 823 -851 761 -58 -8 -39 -16
-353 153 -116 63 -131 69 -163 65 -15 -1 -95 -44 -178 -94 -96 -59 -156 -90
-166 -86 -9 4 -74 46 -145 93 -170 114 -162 114 -342 -5 -76 -51 -143 -92
-149 -92 -6 0 -73 38 -148 85 -133 82 -177 105 -202 105 -7 0 -64 -28 -127
-61z"/>
</g>
</svg>
